<?xml version="1.0" encoding="UTF-8" standalone="no"?><!DOCTYPE svg PUBLIC "-//W3C//DTD SVG 1.1//EN" "http://www.w3.org/Graphics/SVG/1.1/DTD/svg11.dtd"><!-- Generated by graphviz version 2.40.1 (20161225.0304)
 --><!-- Title: G Pages: 1 --><svg xmlns="http://www.w3.org/2000/svg" xmlns:xlink="http://www.w3.org/1999/xlink" width="494pt" height="332pt" viewBox="0.00 0.00 494.00 332.00">
<g id="graph0" class="graph" transform="scale(1 1) rotate(0) translate(4 328)">
<title>G</title>
<polygon fill="#ffffff" stroke="transparent" points="-4,4 -4,-328 490,-328 490,4 -4,4"/>
<!-- 1 -->
<g id="node1" class="node">
<title>1</title>
<text text-anchor="middle" x="198" y="-301.8" font-family="Times,serif" font-size="14.00" fill="#000000">S</text>
</g>
<!-- 2 -->
<g id="node2" class="node">
<title>2</title>
<text text-anchor="middle" x="108" y="-229.8" font-family="Times,serif" font-size="14.00" fill="#000000">S</text>
</g>
<!-- 1&#45;&gt;2 -->
<g id="edge1" class="edge">
<title>1-&gt;2</title>
<path fill="none" stroke="#000000" d="M175.2892,-287.8314C161.6459,-276.9167 144.3456,-263.0764 130.7035,-252.1628"/>
</g>
<!-- 3 -->
<g id="node3" class="node">
<title>3</title>
<text text-anchor="middle" x="198" y="-229.8" font-family="Times,serif" font-size="14.00" fill="#000000">;</text>
</g>
<!-- 1&#45;&gt;3 -->
<g id="edge2" class="edge">
<title>1-&gt;3</title>
<path fill="none" stroke="#000000" d="M198,-287.8314C198,-277 198,-263.2876 198,-252.4133"/>
</g>
<!-- 4 -->
<g id="node4" class="node">
<title>4</title>
<text text-anchor="middle" x="306" y="-229.8" font-family="Times,serif" font-size="14.00" fill="#000000">S</text>
</g>
<!-- 1&#45;&gt;4 -->
<g id="edge3" class="edge">
<title>1-&gt;4</title>
<path fill="none" stroke="#000000" d="M225.253,-287.8314C241.6249,-276.9167 262.3853,-263.0764 278.7558,-252.1628"/>
</g>
<!-- id -->
<g id="node5" class="node">
<title>id</title>
<text text-anchor="middle" x="27" y="-157.8" font-family="Times,serif" font-size="14.00" fill="#000000">id</text>
</g>
<!-- 2&#45;&gt;id -->
<g id="edge4" class="edge">
<title>2-&gt;id</title>
<path fill="none" stroke="#000000" d="M87.5603,-215.8314C75.2813,-204.9167 59.711,-191.0764 47.4332,-180.1628"/>
</g>
<!-- := -->
<g id="node6" class="node">
<title>:=</title>
<text text-anchor="middle" x="99" y="-157.8" font-family="Times,serif" font-size="14.00" fill="#000000">:=</text>
</g>
<!-- 2&#45;&gt;:= -->
<g id="edge5" class="edge">
<title>2-&gt;:=</title>
<path fill="none" stroke="#000000" d="M105.7289,-215.8314C104.375,-205 102.6609,-191.2876 101.3017,-180.4133"/>
</g>
<!-- E -->
<g id="node7" class="node">
<title>E</title>
<text text-anchor="middle" x="171" y="-157.8" font-family="Times,serif" font-size="14.00" fill="#000000">E</text>
</g>
<!-- 2&#45;&gt;E -->
<g id="edge6" class="edge">
<title>2-&gt;E</title>
<path fill="none" stroke="#000000" d="M123.8976,-215.8314C133.375,-205 145.3734,-191.2876 154.8884,-180.4133"/>
</g>
<!-- 5 -->
<g id="node9" class="node">
<title>5</title>
<text text-anchor="middle" x="243" y="-157.8" font-family="Times,serif" font-size="14.00" fill="#000000">id</text>
</g>
<!-- 4&#45;&gt;5 -->
<g id="edge8" class="edge">
<title>4-&gt;5</title>
<path fill="none" stroke="#000000" d="M290.1024,-215.8314C280.625,-205 268.6266,-191.2876 259.1116,-180.4133"/>
</g>
<!-- 6 -->
<g id="node10" class="node">
<title>6</title>
<text text-anchor="middle" x="315" y="-157.8" font-family="Times,serif" font-size="14.00" fill="#000000">:=</text>
</g>
<!-- 4&#45;&gt;6 -->
<g id="edge9" class="edge">
<title>4-&gt;6</title>
<path fill="none" stroke="#000000" d="M308.2711,-215.8314C309.625,-205 311.3391,-191.2876 312.6983,-180.4133"/>
</g>
<!-- 7 -->
<g id="node11" class="node">
<title>7</title>
<text text-anchor="middle" x="387" y="-157.8" font-family="Times,serif" font-size="14.00" fill="#000000">E</text>
</g>
<!-- 4&#45;&gt;7 -->
<g id="edge10" class="edge">
<title>4-&gt;7</title>
<path fill="none" stroke="#000000" d="M326.4397,-215.8314C338.7187,-204.9167 354.289,-191.0764 366.5668,-180.1628"/>
</g>
<!-- num -->
<g id="node8" class="node">
<title>num</title>
<text text-anchor="middle" x="171" y="-85.8" font-family="Times,serif" font-size="14.00" fill="#000000">num</text>
</g>
<!-- E&#45;&gt;num -->
<g id="edge7" class="edge">
<title>E-&gt;num</title>
<path fill="none" stroke="#000000" d="M171,-143.8314C171,-133 171,-119.2876 171,-108.4133"/>
</g>
<!-- 8 -->
<g id="node12" class="node">
<title>8</title>
<text text-anchor="middle" x="315" y="-85.8" font-family="Times,serif" font-size="14.00" fill="#000000">E</text>
</g>
<!-- 7&#45;&gt;8 -->
<g id="edge11" class="edge">
<title>7-&gt;8</title>
<path fill="none" stroke="#000000" d="M368.8314,-143.8314C358,-133 344.2876,-119.2876 333.4133,-108.4133"/>
</g>
<!-- 9 -->
<g id="node13" class="node">
<title>9</title>
<text text-anchor="middle" x="387" y="-85.8" font-family="Times,serif" font-size="14.00" fill="#000000">+</text>
</g>
<!-- 7&#45;&gt;9 -->
<g id="edge12" class="edge">
<title>7-&gt;9</title>
<path fill="none" stroke="#000000" d="M387,-143.8314C387,-133 387,-119.2876 387,-108.4133"/>
</g>
<!-- 10 -->
<g id="node14" class="node">
<title>10</title>
<text text-anchor="middle" x="459" y="-85.8" font-family="Times,serif" font-size="14.00" fill="#000000">E</text>
</g>
<!-- 7&#45;&gt;10 -->
<g id="edge13" class="edge">
<title>7-&gt;10</title>
<path fill="none" stroke="#000000" d="M405.1686,-143.8314C416,-133 429.7124,-119.2876 440.5867,-108.4133"/>
</g>
<!-- 11 -->
<g id="node15" class="node">
<title>11</title>
<text text-anchor="middle" x="315" y="-13.8" font-family="Times,serif" font-size="14.00" fill="#000000">id</text>
</g>
<!-- 8&#45;&gt;11 -->
<g id="edge14" class="edge">
<title>8-&gt;11</title>
<path fill="none" stroke="#000000" d="M315,-71.8314C315,-61 315,-47.2876 315,-36.4133"/>
</g>
<!-- 12 -->
<g id="node16" class="node">
<title>12</title>
<text text-anchor="middle" x="459" y="-13.8" font-family="Times,serif" font-size="14.00" fill="#000000">num</text>
</g>
<!-- 10&#45;&gt;12 -->
<g id="edge15" class="edge">
<title>10-&gt;12</title>
<path fill="none" stroke="#000000" d="M459,-71.8314C459,-61 459,-47.2876 459,-36.4133"/>
</g>
</g>
</svg>